G04 #@! TF.GenerationSoftware,KiCad,Pcbnew,8.0.1*
G04 #@! TF.CreationDate,2024-08-02T19:33:06+01:00*
G04 #@! TF.ProjectId,rn4871_interposer,726e3438-3731-45f6-996e-746572706f73,rev?*
G04 #@! TF.SameCoordinates,Original*
G04 #@! TF.FileFunction,Copper,L2,Bot*
G04 #@! TF.FilePolarity,Positive*
%FSLAX46Y46*%
G04 Gerber Fmt 4.6, Leading zero omitted, Abs format (unit mm)*
G04 Created by KiCad (PCBNEW 8.0.1) date 2024-08-02 19:33:06*
%MOMM*%
%LPD*%
G01*
G04 APERTURE LIST*
G04 #@! TA.AperFunction,ComponentPad*
%ADD10C,1.700000*%
G04 #@! TD*
G04 #@! TA.AperFunction,ComponentPad*
%ADD11O,1.700000X1.700000*%
G04 #@! TD*
G04 #@! TA.AperFunction,ComponentPad*
%ADD12R,1.700000X1.700000*%
G04 #@! TD*
G04 #@! TA.AperFunction,ViaPad*
%ADD13C,0.600000*%
G04 #@! TD*
G04 APERTURE END LIST*
D10*
X138430000Y-96520000D03*
D11*
X140970000Y-96520000D03*
X143510000Y-96520000D03*
X146050000Y-96520000D03*
X148590000Y-96520000D03*
X151130000Y-96520000D03*
D10*
X153670000Y-101600000D03*
D11*
X153670000Y-99060000D03*
X153670000Y-96520000D03*
X153670000Y-93980000D03*
X153670000Y-91440000D03*
X153670000Y-88900000D03*
X153670000Y-86360000D03*
X153670000Y-83820000D03*
D12*
X135890000Y-83820000D03*
D11*
X135890000Y-86360000D03*
X135890000Y-88900000D03*
X135890000Y-91440000D03*
X135890000Y-93980000D03*
X135890000Y-96520000D03*
X135890000Y-99060000D03*
X135890000Y-101600000D03*
D13*
X151130000Y-87630000D03*
X149860000Y-101600000D03*
X139700000Y-101600000D03*
X144780000Y-101600000D03*
X144780000Y-83820000D03*
X151130000Y-90170000D03*
X143510000Y-83820000D03*
X146050000Y-85090000D03*
X142240000Y-83820000D03*
X151130000Y-88900000D03*
X143510000Y-87630000D03*
X143510000Y-85090000D03*
X147320000Y-85090000D03*
X146050000Y-83820000D03*
X144780000Y-86360000D03*
X142240000Y-86360000D03*
X147320000Y-83820000D03*
X147320000Y-86360000D03*
X148590000Y-91440000D03*
X138430000Y-83820000D03*
X146050000Y-87630000D03*
X143510000Y-86360000D03*
X147320000Y-87630000D03*
X144780000Y-87630000D03*
X142240000Y-85090000D03*
X149860000Y-91440000D03*
X142240000Y-87630000D03*
X144780000Y-85090000D03*
X146050000Y-86360000D03*
X139700000Y-91440000D03*
X138430000Y-90170000D03*
X140970000Y-91440000D03*
G04 #@! TA.AperFunction,Conductor*
G36*
X155016621Y-82435502D02*
G01*
X155063114Y-82489158D01*
X155074500Y-82541500D01*
X155074500Y-102878500D01*
X155054498Y-102946621D01*
X155000842Y-102993114D01*
X154948500Y-103004500D01*
X134611500Y-103004500D01*
X134543379Y-102984498D01*
X134496886Y-102930842D01*
X134485500Y-102878500D01*
X134485500Y-101600004D01*
X134780768Y-101600004D01*
X134799654Y-101803819D01*
X134799655Y-101803821D01*
X134855672Y-102000701D01*
X134946912Y-102183935D01*
X134946913Y-102183936D01*
X135070266Y-102347284D01*
X135221536Y-102485185D01*
X135395566Y-102592940D01*
X135395568Y-102592940D01*
X135395573Y-102592944D01*
X135586444Y-102666888D01*
X135787653Y-102704500D01*
X135787655Y-102704500D01*
X135992345Y-102704500D01*
X135992347Y-102704500D01*
X136193556Y-102666888D01*
X136384427Y-102592944D01*
X136558462Y-102485186D01*
X136709732Y-102347285D01*
X136833088Y-102183935D01*
X136924328Y-102000701D01*
X136980345Y-101803821D01*
X136999232Y-101600004D01*
X152560768Y-101600004D01*
X152579654Y-101803819D01*
X152579655Y-101803821D01*
X152635672Y-102000701D01*
X152726912Y-102183935D01*
X152726913Y-102183936D01*
X152850266Y-102347284D01*
X153001536Y-102485185D01*
X153175566Y-102592940D01*
X153175568Y-102592940D01*
X153175573Y-102592944D01*
X153366444Y-102666888D01*
X153567653Y-102704500D01*
X153567655Y-102704500D01*
X153772345Y-102704500D01*
X153772347Y-102704500D01*
X153973556Y-102666888D01*
X154164427Y-102592944D01*
X154338462Y-102485186D01*
X154489732Y-102347285D01*
X154613088Y-102183935D01*
X154704328Y-102000701D01*
X154760345Y-101803821D01*
X154779232Y-101600000D01*
X154760345Y-101396179D01*
X154704328Y-101199299D01*
X154613088Y-101016065D01*
X154572538Y-100962368D01*
X154489733Y-100852715D01*
X154338463Y-100714814D01*
X154164433Y-100607059D01*
X154164428Y-100607057D01*
X154164427Y-100607056D01*
X153973559Y-100533113D01*
X153973560Y-100533113D01*
X153973557Y-100533112D01*
X153973556Y-100533112D01*
X153772347Y-100495500D01*
X153567653Y-100495500D01*
X153366444Y-100533112D01*
X153366439Y-100533113D01*
X153175577Y-100607054D01*
X153175566Y-100607059D01*
X153001536Y-100714814D01*
X152850266Y-100852715D01*
X152726913Y-101016063D01*
X152635671Y-101199301D01*
X152579654Y-101396180D01*
X152560768Y-101599995D01*
X152560768Y-101600004D01*
X136999232Y-101600004D01*
X136999232Y-101600000D01*
X136980345Y-101396179D01*
X136924328Y-101199299D01*
X136833088Y-101016065D01*
X136792538Y-100962368D01*
X136709733Y-100852715D01*
X136558463Y-100714814D01*
X136384433Y-100607059D01*
X136384428Y-100607057D01*
X136384427Y-100607056D01*
X136193559Y-100533113D01*
X136193560Y-100533113D01*
X136193557Y-100533112D01*
X136193556Y-100533112D01*
X135992347Y-100495500D01*
X135787653Y-100495500D01*
X135586444Y-100533112D01*
X135586439Y-100533113D01*
X135395577Y-100607054D01*
X135395566Y-100607059D01*
X135221536Y-100714814D01*
X135070266Y-100852715D01*
X134946913Y-101016063D01*
X134855671Y-101199301D01*
X134799654Y-101396180D01*
X134780768Y-101599995D01*
X134780768Y-101600004D01*
X134485500Y-101600004D01*
X134485500Y-99060004D01*
X134780768Y-99060004D01*
X134799654Y-99263819D01*
X134799655Y-99263821D01*
X134855672Y-99460701D01*
X134946912Y-99643935D01*
X134946913Y-99643936D01*
X135070266Y-99807284D01*
X135221536Y-99945185D01*
X135395566Y-100052940D01*
X135395568Y-100052940D01*
X135395573Y-100052944D01*
X135586444Y-100126888D01*
X135787653Y-100164500D01*
X135787655Y-100164500D01*
X135992345Y-100164500D01*
X135992347Y-100164500D01*
X136193556Y-100126888D01*
X136384427Y-100052944D01*
X136558462Y-99945186D01*
X136709732Y-99807285D01*
X136833088Y-99643935D01*
X136924328Y-99460701D01*
X136980345Y-99263821D01*
X136999232Y-99060004D01*
X152560768Y-99060004D01*
X152579654Y-99263819D01*
X152579655Y-99263821D01*
X152635672Y-99460701D01*
X152726912Y-99643935D01*
X152726913Y-99643936D01*
X152850266Y-99807284D01*
X153001536Y-99945185D01*
X153175566Y-100052940D01*
X153175568Y-100052940D01*
X153175573Y-100052944D01*
X153366444Y-100126888D01*
X153567653Y-100164500D01*
X153567655Y-100164500D01*
X153772345Y-100164500D01*
X153772347Y-100164500D01*
X153973556Y-100126888D01*
X154164427Y-100052944D01*
X154338462Y-99945186D01*
X154489732Y-99807285D01*
X154613088Y-99643935D01*
X154704328Y-99460701D01*
X154760345Y-99263821D01*
X154779232Y-99060000D01*
X154760345Y-98856179D01*
X154704328Y-98659299D01*
X154613088Y-98476065D01*
X154572538Y-98422368D01*
X154489733Y-98312715D01*
X154338463Y-98174814D01*
X154164433Y-98067059D01*
X154164428Y-98067057D01*
X154164427Y-98067056D01*
X153973559Y-97993113D01*
X153973560Y-97993113D01*
X153973557Y-97993112D01*
X153973556Y-97993112D01*
X153772347Y-97955500D01*
X153567653Y-97955500D01*
X153366444Y-97993112D01*
X153366439Y-97993113D01*
X153175577Y-98067054D01*
X153175566Y-98067059D01*
X153001536Y-98174814D01*
X152850266Y-98312715D01*
X152726913Y-98476063D01*
X152635671Y-98659301D01*
X152579654Y-98856180D01*
X152560768Y-99059995D01*
X152560768Y-99060004D01*
X136999232Y-99060004D01*
X136999232Y-99060000D01*
X136980345Y-98856179D01*
X136924328Y-98659299D01*
X136833088Y-98476065D01*
X136792538Y-98422368D01*
X136709733Y-98312715D01*
X136558463Y-98174814D01*
X136384433Y-98067059D01*
X136384428Y-98067057D01*
X136384427Y-98067056D01*
X136193559Y-97993113D01*
X136193560Y-97993113D01*
X136193557Y-97993112D01*
X136193556Y-97993112D01*
X135992347Y-97955500D01*
X135787653Y-97955500D01*
X135586444Y-97993112D01*
X135586439Y-97993113D01*
X135395577Y-98067054D01*
X135395566Y-98067059D01*
X135221536Y-98174814D01*
X135070266Y-98312715D01*
X134946913Y-98476063D01*
X134855671Y-98659301D01*
X134799654Y-98856180D01*
X134780768Y-99059995D01*
X134780768Y-99060004D01*
X134485500Y-99060004D01*
X134485500Y-96520004D01*
X134780768Y-96520004D01*
X134799654Y-96723819D01*
X134799655Y-96723821D01*
X134855672Y-96920701D01*
X134946912Y-97103935D01*
X134946913Y-97103936D01*
X135070266Y-97267284D01*
X135221536Y-97405185D01*
X135395566Y-97512940D01*
X135395568Y-97512940D01*
X135395573Y-97512944D01*
X135586444Y-97586888D01*
X135787653Y-97624500D01*
X135787655Y-97624500D01*
X135992345Y-97624500D01*
X135992347Y-97624500D01*
X136193556Y-97586888D01*
X136384427Y-97512944D01*
X136558462Y-97405186D01*
X136709732Y-97267285D01*
X136833088Y-97103935D01*
X136924328Y-96920701D01*
X136980345Y-96723821D01*
X136999232Y-96520004D01*
X137320768Y-96520004D01*
X137339654Y-96723819D01*
X137339655Y-96723821D01*
X137395672Y-96920701D01*
X137486912Y-97103935D01*
X137486913Y-97103936D01*
X137610266Y-97267284D01*
X137761536Y-97405185D01*
X137935566Y-97512940D01*
X137935568Y-97512940D01*
X137935573Y-97512944D01*
X138126444Y-97586888D01*
X138327653Y-97624500D01*
X138327655Y-97624500D01*
X138532345Y-97624500D01*
X138532347Y-97624500D01*
X138733556Y-97586888D01*
X138924427Y-97512944D01*
X139098462Y-97405186D01*
X139249732Y-97267285D01*
X139373088Y-97103935D01*
X139464328Y-96920701D01*
X139520345Y-96723821D01*
X139539232Y-96520004D01*
X139860768Y-96520004D01*
X139879654Y-96723819D01*
X139879655Y-96723821D01*
X139935672Y-96920701D01*
X140026912Y-97103935D01*
X140026913Y-97103936D01*
X140150266Y-97267284D01*
X140301536Y-97405185D01*
X140475566Y-97512940D01*
X140475568Y-97512940D01*
X140475573Y-97512944D01*
X140666444Y-97586888D01*
X140867653Y-97624500D01*
X140867655Y-97624500D01*
X141072345Y-97624500D01*
X141072347Y-97624500D01*
X141273556Y-97586888D01*
X141464427Y-97512944D01*
X141638462Y-97405186D01*
X141789732Y-97267285D01*
X141913088Y-97103935D01*
X142004328Y-96920701D01*
X142060345Y-96723821D01*
X142079232Y-96520004D01*
X142400768Y-96520004D01*
X142419654Y-96723819D01*
X142419655Y-96723821D01*
X142475672Y-96920701D01*
X142566912Y-97103935D01*
X142566913Y-97103936D01*
X142690266Y-97267284D01*
X142841536Y-97405185D01*
X143015566Y-97512940D01*
X143015568Y-97512940D01*
X143015573Y-97512944D01*
X143206444Y-97586888D01*
X143407653Y-97624500D01*
X143407655Y-97624500D01*
X143612345Y-97624500D01*
X143612347Y-97624500D01*
X143813556Y-97586888D01*
X144004427Y-97512944D01*
X144178462Y-97405186D01*
X144329732Y-97267285D01*
X144453088Y-97103935D01*
X144544328Y-96920701D01*
X144600345Y-96723821D01*
X144619232Y-96520004D01*
X144940768Y-96520004D01*
X144959654Y-96723819D01*
X144959655Y-96723821D01*
X145015672Y-96920701D01*
X145106912Y-97103935D01*
X145106913Y-97103936D01*
X145230266Y-97267284D01*
X145381536Y-97405185D01*
X145555566Y-97512940D01*
X145555568Y-97512940D01*
X145555573Y-97512944D01*
X145746444Y-97586888D01*
X145947653Y-97624500D01*
X145947655Y-97624500D01*
X146152345Y-97624500D01*
X146152347Y-97624500D01*
X146353556Y-97586888D01*
X146544427Y-97512944D01*
X146718462Y-97405186D01*
X146869732Y-97267285D01*
X146993088Y-97103935D01*
X147084328Y-96920701D01*
X147140345Y-96723821D01*
X147159232Y-96520004D01*
X147480768Y-96520004D01*
X147499654Y-96723819D01*
X147499655Y-96723821D01*
X147555672Y-96920701D01*
X147646912Y-97103935D01*
X147646913Y-97103936D01*
X147770266Y-97267284D01*
X147921536Y-97405185D01*
X148095566Y-97512940D01*
X148095568Y-97512940D01*
X148095573Y-97512944D01*
X148286444Y-97586888D01*
X148487653Y-97624500D01*
X148487655Y-97624500D01*
X148692345Y-97624500D01*
X148692347Y-97624500D01*
X148893556Y-97586888D01*
X149084427Y-97512944D01*
X149258462Y-97405186D01*
X149409732Y-97267285D01*
X149533088Y-97103935D01*
X149624328Y-96920701D01*
X149680345Y-96723821D01*
X149699232Y-96520004D01*
X150020768Y-96520004D01*
X150039654Y-96723819D01*
X150039655Y-96723821D01*
X150095672Y-96920701D01*
X150186912Y-97103935D01*
X150186913Y-97103936D01*
X150310266Y-97267284D01*
X150461536Y-97405185D01*
X150635566Y-97512940D01*
X150635568Y-97512940D01*
X150635573Y-97512944D01*
X150826444Y-97586888D01*
X151027653Y-97624500D01*
X151027655Y-97624500D01*
X151232345Y-97624500D01*
X151232347Y-97624500D01*
X151433556Y-97586888D01*
X151624427Y-97512944D01*
X151798462Y-97405186D01*
X151949732Y-97267285D01*
X152073088Y-97103935D01*
X152164328Y-96920701D01*
X152220345Y-96723821D01*
X152239232Y-96520004D01*
X152560768Y-96520004D01*
X152579654Y-96723819D01*
X152579655Y-96723821D01*
X152635672Y-96920701D01*
X152726912Y-97103935D01*
X152726913Y-97103936D01*
X152850266Y-97267284D01*
X153001536Y-97405185D01*
X153175566Y-97512940D01*
X153175568Y-97512940D01*
X153175573Y-97512944D01*
X153366444Y-97586888D01*
X153567653Y-97624500D01*
X153567655Y-97624500D01*
X153772345Y-97624500D01*
X153772347Y-97624500D01*
X153973556Y-97586888D01*
X154164427Y-97512944D01*
X154338462Y-97405186D01*
X154489732Y-97267285D01*
X154613088Y-97103935D01*
X154704328Y-96920701D01*
X154760345Y-96723821D01*
X154779232Y-96520000D01*
X154760345Y-96316179D01*
X154704328Y-96119299D01*
X154613088Y-95936065D01*
X154572538Y-95882368D01*
X154489733Y-95772715D01*
X154338463Y-95634814D01*
X154164433Y-95527059D01*
X154164428Y-95527057D01*
X154164427Y-95527056D01*
X153973559Y-95453113D01*
X153973560Y-95453113D01*
X153973557Y-95453112D01*
X153973556Y-95453112D01*
X153772347Y-95415500D01*
X153567653Y-95415500D01*
X153366444Y-95453112D01*
X153366439Y-95453113D01*
X153175577Y-95527054D01*
X153175566Y-95527059D01*
X153001536Y-95634814D01*
X152850266Y-95772715D01*
X152726913Y-95936063D01*
X152635671Y-96119301D01*
X152579654Y-96316180D01*
X152560768Y-96519995D01*
X152560768Y-96520004D01*
X152239232Y-96520004D01*
X152239232Y-96520000D01*
X152220345Y-96316179D01*
X152164328Y-96119299D01*
X152073088Y-95936065D01*
X152032538Y-95882368D01*
X151949733Y-95772715D01*
X151798463Y-95634814D01*
X151624433Y-95527059D01*
X151624428Y-95527057D01*
X151624427Y-95527056D01*
X151433559Y-95453113D01*
X151433560Y-95453113D01*
X151433557Y-95453112D01*
X151433556Y-95453112D01*
X151232347Y-95415500D01*
X151027653Y-95415500D01*
X150826444Y-95453112D01*
X150826439Y-95453113D01*
X150635577Y-95527054D01*
X150635566Y-95527059D01*
X150461536Y-95634814D01*
X150310266Y-95772715D01*
X150186913Y-95936063D01*
X150095671Y-96119301D01*
X150039654Y-96316180D01*
X150020768Y-96519995D01*
X150020768Y-96520004D01*
X149699232Y-96520004D01*
X149699232Y-96520000D01*
X149680345Y-96316179D01*
X149624328Y-96119299D01*
X149533088Y-95936065D01*
X149492538Y-95882368D01*
X149409733Y-95772715D01*
X149258463Y-95634814D01*
X149084433Y-95527059D01*
X149084428Y-95527057D01*
X149084427Y-95527056D01*
X148893559Y-95453113D01*
X148893560Y-95453113D01*
X148893557Y-95453112D01*
X148893556Y-95453112D01*
X148692347Y-95415500D01*
X148487653Y-95415500D01*
X148286444Y-95453112D01*
X148286439Y-95453113D01*
X148095577Y-95527054D01*
X148095566Y-95527059D01*
X147921536Y-95634814D01*
X147770266Y-95772715D01*
X147646913Y-95936063D01*
X147555671Y-96119301D01*
X147499654Y-96316180D01*
X147480768Y-96519995D01*
X147480768Y-96520004D01*
X147159232Y-96520004D01*
X147159232Y-96520000D01*
X147140345Y-96316179D01*
X147084328Y-96119299D01*
X146993088Y-95936065D01*
X146952538Y-95882368D01*
X146869733Y-95772715D01*
X146718463Y-95634814D01*
X146544433Y-95527059D01*
X146544428Y-95527057D01*
X146544427Y-95527056D01*
X146353559Y-95453113D01*
X146353560Y-95453113D01*
X146353557Y-95453112D01*
X146353556Y-95453112D01*
X146152347Y-95415500D01*
X145947653Y-95415500D01*
X145746444Y-95453112D01*
X145746439Y-95453113D01*
X145555577Y-95527054D01*
X145555566Y-95527059D01*
X145381536Y-95634814D01*
X145230266Y-95772715D01*
X145106913Y-95936063D01*
X145015671Y-96119301D01*
X144959654Y-96316180D01*
X144940768Y-96519995D01*
X144940768Y-96520004D01*
X144619232Y-96520004D01*
X144619232Y-96520000D01*
X144600345Y-96316179D01*
X144544328Y-96119299D01*
X144453088Y-95936065D01*
X144412538Y-95882368D01*
X144329733Y-95772715D01*
X144178463Y-95634814D01*
X144004433Y-95527059D01*
X144004428Y-95527057D01*
X144004427Y-95527056D01*
X143813559Y-95453113D01*
X143813560Y-95453113D01*
X143813557Y-95453112D01*
X143813556Y-95453112D01*
X143612347Y-95415500D01*
X143407653Y-95415500D01*
X143206444Y-95453112D01*
X143206439Y-95453113D01*
X143015577Y-95527054D01*
X143015566Y-95527059D01*
X142841536Y-95634814D01*
X142690266Y-95772715D01*
X142566913Y-95936063D01*
X142475671Y-96119301D01*
X142419654Y-96316180D01*
X142400768Y-96519995D01*
X142400768Y-96520004D01*
X142079232Y-96520004D01*
X142079232Y-96520000D01*
X142060345Y-96316179D01*
X142004328Y-96119299D01*
X141913088Y-95936065D01*
X141872538Y-95882368D01*
X141789733Y-95772715D01*
X141638463Y-95634814D01*
X141464433Y-95527059D01*
X141464428Y-95527057D01*
X141464427Y-95527056D01*
X141273559Y-95453113D01*
X141273560Y-95453113D01*
X141273557Y-95453112D01*
X141273556Y-95453112D01*
X141072347Y-95415500D01*
X140867653Y-95415500D01*
X140666444Y-95453112D01*
X140666439Y-95453113D01*
X140475577Y-95527054D01*
X140475566Y-95527059D01*
X140301536Y-95634814D01*
X140150266Y-95772715D01*
X140026913Y-95936063D01*
X139935671Y-96119301D01*
X139879654Y-96316180D01*
X139860768Y-96519995D01*
X139860768Y-96520004D01*
X139539232Y-96520004D01*
X139539232Y-96520000D01*
X139520345Y-96316179D01*
X139464328Y-96119299D01*
X139373088Y-95936065D01*
X139332538Y-95882368D01*
X139249733Y-95772715D01*
X139098463Y-95634814D01*
X138924433Y-95527059D01*
X138924428Y-95527057D01*
X138924427Y-95527056D01*
X138733559Y-95453113D01*
X138733560Y-95453113D01*
X138733557Y-95453112D01*
X138733556Y-95453112D01*
X138532347Y-95415500D01*
X138327653Y-95415500D01*
X138126444Y-95453112D01*
X138126439Y-95453113D01*
X137935577Y-95527054D01*
X137935566Y-95527059D01*
X137761536Y-95634814D01*
X137610266Y-95772715D01*
X137486913Y-95936063D01*
X137395671Y-96119301D01*
X137339654Y-96316180D01*
X137320768Y-96519995D01*
X137320768Y-96520004D01*
X136999232Y-96520004D01*
X136999232Y-96520000D01*
X136980345Y-96316179D01*
X136924328Y-96119299D01*
X136833088Y-95936065D01*
X136792538Y-95882368D01*
X136709733Y-95772715D01*
X136558463Y-95634814D01*
X136384433Y-95527059D01*
X136384428Y-95527057D01*
X136384427Y-95527056D01*
X136193559Y-95453113D01*
X136193560Y-95453113D01*
X136193557Y-95453112D01*
X136193556Y-95453112D01*
X135992347Y-95415500D01*
X135787653Y-95415500D01*
X135586444Y-95453112D01*
X135586439Y-95453113D01*
X135395577Y-95527054D01*
X135395566Y-95527059D01*
X135221536Y-95634814D01*
X135070266Y-95772715D01*
X134946913Y-95936063D01*
X134855671Y-96119301D01*
X134799654Y-96316180D01*
X134780768Y-96519995D01*
X134780768Y-96520004D01*
X134485500Y-96520004D01*
X134485500Y-93980004D01*
X134780768Y-93980004D01*
X134799654Y-94183819D01*
X134799655Y-94183821D01*
X134855672Y-94380701D01*
X134946912Y-94563935D01*
X134946913Y-94563936D01*
X135070266Y-94727284D01*
X135221536Y-94865185D01*
X135395566Y-94972940D01*
X135395568Y-94972940D01*
X135395573Y-94972944D01*
X135586444Y-95046888D01*
X135787653Y-95084500D01*
X135787655Y-95084500D01*
X135992345Y-95084500D01*
X135992347Y-95084500D01*
X136193556Y-95046888D01*
X136384427Y-94972944D01*
X136558462Y-94865186D01*
X136709732Y-94727285D01*
X136833088Y-94563935D01*
X136924328Y-94380701D01*
X136980345Y-94183821D01*
X136999232Y-93980004D01*
X152560768Y-93980004D01*
X152579654Y-94183819D01*
X152579655Y-94183821D01*
X152635672Y-94380701D01*
X152726912Y-94563935D01*
X152726913Y-94563936D01*
X152850266Y-94727284D01*
X153001536Y-94865185D01*
X153175566Y-94972940D01*
X153175568Y-94972940D01*
X153175573Y-94972944D01*
X153366444Y-95046888D01*
X153567653Y-95084500D01*
X153567655Y-95084500D01*
X153772345Y-95084500D01*
X153772347Y-95084500D01*
X153973556Y-95046888D01*
X154164427Y-94972944D01*
X154338462Y-94865186D01*
X154489732Y-94727285D01*
X154613088Y-94563935D01*
X154704328Y-94380701D01*
X154760345Y-94183821D01*
X154779232Y-93980000D01*
X154760345Y-93776179D01*
X154704328Y-93579299D01*
X154613088Y-93396065D01*
X154572538Y-93342368D01*
X154489733Y-93232715D01*
X154338463Y-93094814D01*
X154164433Y-92987059D01*
X154164428Y-92987057D01*
X154164427Y-92987056D01*
X153973559Y-92913113D01*
X153973560Y-92913113D01*
X153973557Y-92913112D01*
X153973556Y-92913112D01*
X153772347Y-92875500D01*
X153567653Y-92875500D01*
X153366444Y-92913112D01*
X153366439Y-92913113D01*
X153175577Y-92987054D01*
X153175566Y-92987059D01*
X153001536Y-93094814D01*
X152850266Y-93232715D01*
X152726913Y-93396063D01*
X152635671Y-93579301D01*
X152579654Y-93776180D01*
X152560768Y-93979995D01*
X152560768Y-93980004D01*
X136999232Y-93980004D01*
X136999232Y-93980000D01*
X136980345Y-93776179D01*
X136924328Y-93579299D01*
X136833088Y-93396065D01*
X136792538Y-93342368D01*
X136709733Y-93232715D01*
X136558463Y-93094814D01*
X136384433Y-92987059D01*
X136384428Y-92987057D01*
X136384427Y-92987056D01*
X136193559Y-92913113D01*
X136193560Y-92913113D01*
X136193557Y-92913112D01*
X136193556Y-92913112D01*
X135992347Y-92875500D01*
X135787653Y-92875500D01*
X135586444Y-92913112D01*
X135586439Y-92913113D01*
X135395577Y-92987054D01*
X135395566Y-92987059D01*
X135221536Y-93094814D01*
X135070266Y-93232715D01*
X134946913Y-93396063D01*
X134855671Y-93579301D01*
X134799654Y-93776180D01*
X134780768Y-93979995D01*
X134780768Y-93980004D01*
X134485500Y-93980004D01*
X134485500Y-91440004D01*
X134780768Y-91440004D01*
X134799654Y-91643819D01*
X134799655Y-91643821D01*
X134855672Y-91840701D01*
X134946912Y-92023935D01*
X134946913Y-92023936D01*
X135070266Y-92187284D01*
X135221536Y-92325185D01*
X135395566Y-92432940D01*
X135395568Y-92432940D01*
X135395573Y-92432944D01*
X135586444Y-92506888D01*
X135787653Y-92544500D01*
X135787655Y-92544500D01*
X135992345Y-92544500D01*
X135992347Y-92544500D01*
X136193556Y-92506888D01*
X136384427Y-92432944D01*
X136558462Y-92325186D01*
X136709732Y-92187285D01*
X136833088Y-92023935D01*
X136924328Y-91840701D01*
X136980345Y-91643821D01*
X136999232Y-91440000D01*
X136993132Y-91374174D01*
X136980345Y-91236180D01*
X136966068Y-91186000D01*
X136966068Y-91185999D01*
X152594450Y-91185999D01*
X152594451Y-91186000D01*
X153239297Y-91186000D01*
X153204075Y-91247007D01*
X153170000Y-91374174D01*
X153170000Y-91505826D01*
X153204075Y-91632993D01*
X153239297Y-91694000D01*
X152594451Y-91694000D01*
X152636138Y-91840514D01*
X152636140Y-91840519D01*
X152727340Y-92023672D01*
X152850637Y-92186946D01*
X153001838Y-92324784D01*
X153175796Y-92432493D01*
X153175803Y-92432496D01*
X153366582Y-92506405D01*
X153415999Y-92515642D01*
X153416000Y-92515642D01*
X153416000Y-91870702D01*
X153477007Y-91905925D01*
X153604174Y-91940000D01*
X153735826Y-91940000D01*
X153862993Y-91905925D01*
X153924000Y-91870702D01*
X153924000Y-92515642D01*
X153973417Y-92506405D01*
X153973418Y-92506405D01*
X154164196Y-92432496D01*
X154164203Y-92432493D01*
X154338161Y-92324784D01*
X154489362Y-92186946D01*
X154612659Y-92023672D01*
X154703859Y-91840519D01*
X154703861Y-91840514D01*
X154745549Y-91694000D01*
X154100703Y-91694000D01*
X154135925Y-91632993D01*
X154170000Y-91505826D01*
X154170000Y-91374174D01*
X154135925Y-91247007D01*
X154100703Y-91186000D01*
X154745549Y-91186000D01*
X154745549Y-91185999D01*
X154703861Y-91039485D01*
X154703859Y-91039480D01*
X154612659Y-90856327D01*
X154489362Y-90693053D01*
X154338161Y-90555215D01*
X154164203Y-90447506D01*
X154164196Y-90447503D01*
X153973424Y-90373596D01*
X153924000Y-90364357D01*
X153924000Y-91009297D01*
X153862993Y-90974075D01*
X153735826Y-90940000D01*
X153604174Y-90940000D01*
X153477007Y-90974075D01*
X153416000Y-91009297D01*
X153416000Y-90364357D01*
X153366575Y-90373596D01*
X153175803Y-90447503D01*
X153175796Y-90447506D01*
X153001838Y-90555215D01*
X152850637Y-90693053D01*
X152727340Y-90856327D01*
X152636140Y-91039480D01*
X152636138Y-91039485D01*
X152594450Y-91185999D01*
X136966068Y-91185999D01*
X136924328Y-91039299D01*
X136833088Y-90856065D01*
X136792538Y-90802368D01*
X136709733Y-90692715D01*
X136558463Y-90554814D01*
X136384433Y-90447059D01*
X136384428Y-90447057D01*
X136384427Y-90447056D01*
X136384422Y-90447054D01*
X136193559Y-90373113D01*
X136193560Y-90373113D01*
X136193557Y-90373112D01*
X136193556Y-90373112D01*
X135992347Y-90335500D01*
X135787653Y-90335500D01*
X135633280Y-90364357D01*
X135586439Y-90373113D01*
X135395577Y-90447054D01*
X135395566Y-90447059D01*
X135221536Y-90554814D01*
X135070266Y-90692715D01*
X134946913Y-90856063D01*
X134855671Y-91039301D01*
X134799654Y-91236180D01*
X134780768Y-91439995D01*
X134780768Y-91440004D01*
X134485500Y-91440004D01*
X134485500Y-88900004D01*
X134780768Y-88900004D01*
X134799654Y-89103819D01*
X134799655Y-89103821D01*
X134855672Y-89300701D01*
X134946912Y-89483935D01*
X134946913Y-89483936D01*
X135070266Y-89647284D01*
X135221536Y-89785185D01*
X135395566Y-89892940D01*
X135395568Y-89892940D01*
X135395573Y-89892944D01*
X135586444Y-89966888D01*
X135787653Y-90004500D01*
X135787655Y-90004500D01*
X135992345Y-90004500D01*
X135992347Y-90004500D01*
X136193556Y-89966888D01*
X136384427Y-89892944D01*
X136558462Y-89785186D01*
X136709732Y-89647285D01*
X136833088Y-89483935D01*
X136924328Y-89300701D01*
X136980345Y-89103821D01*
X136999232Y-88900004D01*
X152560768Y-88900004D01*
X152579654Y-89103819D01*
X152579655Y-89103821D01*
X152635672Y-89300701D01*
X152726912Y-89483935D01*
X152726913Y-89483936D01*
X152850266Y-89647284D01*
X153001536Y-89785185D01*
X153175566Y-89892940D01*
X153175568Y-89892940D01*
X153175573Y-89892944D01*
X153366444Y-89966888D01*
X153567653Y-90004500D01*
X153567655Y-90004500D01*
X153772345Y-90004500D01*
X153772347Y-90004500D01*
X153973556Y-89966888D01*
X154164427Y-89892944D01*
X154338462Y-89785186D01*
X154489732Y-89647285D01*
X154613088Y-89483935D01*
X154704328Y-89300701D01*
X154760345Y-89103821D01*
X154779232Y-88900000D01*
X154760345Y-88696179D01*
X154704328Y-88499299D01*
X154613088Y-88316065D01*
X154572538Y-88262368D01*
X154489733Y-88152715D01*
X154338463Y-88014814D01*
X154164433Y-87907059D01*
X154164428Y-87907057D01*
X154164427Y-87907056D01*
X153973559Y-87833113D01*
X153973560Y-87833113D01*
X153973557Y-87833112D01*
X153973556Y-87833112D01*
X153772347Y-87795500D01*
X153567653Y-87795500D01*
X153366444Y-87833112D01*
X153366439Y-87833113D01*
X153175577Y-87907054D01*
X153175566Y-87907059D01*
X153001536Y-88014814D01*
X152850266Y-88152715D01*
X152726913Y-88316063D01*
X152635671Y-88499301D01*
X152579654Y-88696180D01*
X152560768Y-88899995D01*
X152560768Y-88900004D01*
X136999232Y-88900004D01*
X136999232Y-88900000D01*
X136980345Y-88696179D01*
X136924328Y-88499299D01*
X136833088Y-88316065D01*
X136792538Y-88262368D01*
X136709733Y-88152715D01*
X136558463Y-88014814D01*
X136384433Y-87907059D01*
X136384428Y-87907057D01*
X136384427Y-87907056D01*
X136193559Y-87833113D01*
X136193560Y-87833113D01*
X136193557Y-87833112D01*
X136193556Y-87833112D01*
X135992347Y-87795500D01*
X135787653Y-87795500D01*
X135586444Y-87833112D01*
X135586439Y-87833113D01*
X135395577Y-87907054D01*
X135395566Y-87907059D01*
X135221536Y-88014814D01*
X135070266Y-88152715D01*
X134946913Y-88316063D01*
X134855671Y-88499301D01*
X134799654Y-88696180D01*
X134780768Y-88899995D01*
X134780768Y-88900004D01*
X134485500Y-88900004D01*
X134485500Y-86105999D01*
X134814450Y-86105999D01*
X134814451Y-86106000D01*
X135459297Y-86106000D01*
X135424075Y-86167007D01*
X135390000Y-86294174D01*
X135390000Y-86425826D01*
X135424075Y-86552993D01*
X135459297Y-86614000D01*
X134814451Y-86614000D01*
X134856138Y-86760514D01*
X134856140Y-86760519D01*
X134947340Y-86943672D01*
X135070637Y-87106946D01*
X135221838Y-87244784D01*
X135395796Y-87352493D01*
X135395803Y-87352496D01*
X135586582Y-87426405D01*
X135635999Y-87435642D01*
X135636000Y-87435642D01*
X135636000Y-86790702D01*
X135697007Y-86825925D01*
X135824174Y-86860000D01*
X135955826Y-86860000D01*
X136082993Y-86825925D01*
X136144000Y-86790702D01*
X136144000Y-87435642D01*
X136193417Y-87426405D01*
X136193418Y-87426405D01*
X136384196Y-87352496D01*
X136384203Y-87352493D01*
X136558161Y-87244784D01*
X136709362Y-87106946D01*
X136832659Y-86943672D01*
X136923859Y-86760519D01*
X136923861Y-86760514D01*
X136965549Y-86614000D01*
X136320703Y-86614000D01*
X136355925Y-86552993D01*
X136390000Y-86425826D01*
X136390000Y-86360004D01*
X152560768Y-86360004D01*
X152579654Y-86563819D01*
X152579655Y-86563821D01*
X152635672Y-86760701D01*
X152726912Y-86943935D01*
X152726913Y-86943936D01*
X152850266Y-87107284D01*
X153001536Y-87245185D01*
X153175566Y-87352940D01*
X153175568Y-87352940D01*
X153175573Y-87352944D01*
X153366444Y-87426888D01*
X153567653Y-87464500D01*
X153567655Y-87464500D01*
X153772345Y-87464500D01*
X153772347Y-87464500D01*
X153973556Y-87426888D01*
X154164427Y-87352944D01*
X154338462Y-87245186D01*
X154489732Y-87107285D01*
X154613088Y-86943935D01*
X154704328Y-86760701D01*
X154760345Y-86563821D01*
X154779232Y-86360000D01*
X154773132Y-86294174D01*
X154760345Y-86156180D01*
X154746068Y-86106000D01*
X154704328Y-85959299D01*
X154613088Y-85776065D01*
X154572538Y-85722368D01*
X154489733Y-85612715D01*
X154338463Y-85474814D01*
X154164433Y-85367059D01*
X154164428Y-85367057D01*
X154164427Y-85367056D01*
X154164422Y-85367054D01*
X153973559Y-85293113D01*
X153973560Y-85293113D01*
X153973557Y-85293112D01*
X153973556Y-85293112D01*
X153772347Y-85255500D01*
X153567653Y-85255500D01*
X153413280Y-85284357D01*
X153366439Y-85293113D01*
X153175577Y-85367054D01*
X153175566Y-85367059D01*
X153001536Y-85474814D01*
X152850266Y-85612715D01*
X152726913Y-85776063D01*
X152635671Y-85959301D01*
X152579654Y-86156180D01*
X152560768Y-86359995D01*
X152560768Y-86360004D01*
X136390000Y-86360004D01*
X136390000Y-86294174D01*
X136355925Y-86167007D01*
X136320703Y-86106000D01*
X136965549Y-86106000D01*
X136965549Y-86105999D01*
X136923861Y-85959485D01*
X136923859Y-85959480D01*
X136832659Y-85776327D01*
X136709362Y-85613053D01*
X136558161Y-85475215D01*
X136384203Y-85367506D01*
X136384196Y-85367503D01*
X136193424Y-85293596D01*
X136144000Y-85284357D01*
X136144000Y-85929297D01*
X136082993Y-85894075D01*
X135955826Y-85860000D01*
X135824174Y-85860000D01*
X135697007Y-85894075D01*
X135636000Y-85929297D01*
X135636000Y-85284357D01*
X135586575Y-85293596D01*
X135395803Y-85367503D01*
X135395796Y-85367506D01*
X135221838Y-85475215D01*
X135070637Y-85613053D01*
X134947340Y-85776327D01*
X134856140Y-85959480D01*
X134856138Y-85959485D01*
X134814450Y-86105999D01*
X134485500Y-86105999D01*
X134485500Y-84695063D01*
X134785500Y-84695063D01*
X134785501Y-84695073D01*
X134800265Y-84769300D01*
X134856516Y-84853484D01*
X134940697Y-84909733D01*
X134940699Y-84909734D01*
X135014933Y-84924500D01*
X136765066Y-84924499D01*
X136765069Y-84924498D01*
X136765073Y-84924498D01*
X136814326Y-84914701D01*
X136839301Y-84909734D01*
X136923484Y-84853484D01*
X136979734Y-84769301D01*
X136994500Y-84695067D01*
X136994500Y-83820004D01*
X152560768Y-83820004D01*
X152579654Y-84023819D01*
X152579655Y-84023821D01*
X152635672Y-84220701D01*
X152726912Y-84403935D01*
X152726913Y-84403936D01*
X152850266Y-84567284D01*
X153001536Y-84705185D01*
X153175566Y-84812940D01*
X153175568Y-84812940D01*
X153175573Y-84812944D01*
X153366444Y-84886888D01*
X153567653Y-84924500D01*
X153567655Y-84924500D01*
X153772345Y-84924500D01*
X153772347Y-84924500D01*
X153973556Y-84886888D01*
X154164427Y-84812944D01*
X154338462Y-84705186D01*
X154489732Y-84567285D01*
X154613088Y-84403935D01*
X154704328Y-84220701D01*
X154760345Y-84023821D01*
X154779232Y-83820000D01*
X154760345Y-83616179D01*
X154704328Y-83419299D01*
X154613088Y-83236065D01*
X154572538Y-83182368D01*
X154489733Y-83072715D01*
X154338463Y-82934814D01*
X154164433Y-82827059D01*
X154164428Y-82827057D01*
X154164427Y-82827056D01*
X154164422Y-82827054D01*
X153973559Y-82753113D01*
X153973560Y-82753113D01*
X153973557Y-82753112D01*
X153973556Y-82753112D01*
X153772347Y-82715500D01*
X153567653Y-82715500D01*
X153366444Y-82753112D01*
X153366439Y-82753113D01*
X153175577Y-82827054D01*
X153175566Y-82827059D01*
X153001536Y-82934814D01*
X152850266Y-83072715D01*
X152726913Y-83236063D01*
X152635671Y-83419301D01*
X152579654Y-83616180D01*
X152560768Y-83819995D01*
X152560768Y-83820004D01*
X136994500Y-83820004D01*
X136994499Y-82944934D01*
X136994498Y-82944930D01*
X136994498Y-82944926D01*
X136979734Y-82870699D01*
X136923483Y-82786515D01*
X136839302Y-82730266D01*
X136765067Y-82715500D01*
X135014936Y-82715500D01*
X135014926Y-82715501D01*
X134940699Y-82730265D01*
X134856515Y-82786516D01*
X134800266Y-82870697D01*
X134785500Y-82944930D01*
X134785500Y-84695063D01*
X134485500Y-84695063D01*
X134485500Y-82541500D01*
X134505502Y-82473379D01*
X134559158Y-82426886D01*
X134611500Y-82415500D01*
X154948500Y-82415500D01*
X155016621Y-82435502D01*
G37*
G04 #@! TD.AperFunction*
M02*
