M48
; DRILL file {KiCad 8.0.1} date 2024-08-02T19:33:32+0100
; FORMAT={-:-/ absolute / metric / decimal}
; #@! TF.CreationDate,2024-08-02T19:33:32+01:00
; #@! TF.GenerationSoftware,Kicad,Pcbnew,8.0.1
; #@! TF.FileFunction,Plated,1,2,PTH
FMAT,2
METRIC
; #@! TA.AperFunction,Plated,PTH,ViaDrill
T1C0.300
; #@! TA.AperFunction,Plated,PTH,ComponentDrill
T2C1.000
%
G90
G05
T1
X138.43Y-83.82
X138.43Y-90.17
X139.7Y-91.44
X139.7Y-101.6
X140.97Y-91.44
X142.24Y-83.82
X142.24Y-85.09
X142.24Y-86.36
X142.24Y-87.63
X143.51Y-83.82
X143.51Y-85.09
X143.51Y-86.36
X143.51Y-87.63
X144.78Y-83.82
X144.78Y-85.09
X144.78Y-86.36
X144.78Y-87.63
X144.78Y-101.6
X146.05Y-83.82
X146.05Y-85.09
X146.05Y-86.36
X146.05Y-87.63
X147.32Y-83.82
X147.32Y-85.09
X147.32Y-86.36
X147.32Y-87.63
X148.59Y-91.44
X149.86Y-91.44
X149.86Y-101.6
X151.13Y-87.63
X151.13Y-88.9
X151.13Y-90.17
T2
X135.89Y-83.82
X135.89Y-86.36
X135.89Y-88.9
X135.89Y-91.44
X135.89Y-93.98
X135.89Y-96.52
X135.89Y-99.06
X135.89Y-101.6
X138.43Y-96.52
X140.97Y-96.52
X143.51Y-96.52
X146.05Y-96.52
X148.59Y-96.52
X151.13Y-96.52
X153.67Y-83.82
X153.67Y-86.36
X153.67Y-88.9
X153.67Y-91.44
X153.67Y-93.98
X153.67Y-96.52
X153.67Y-99.06
X153.67Y-101.6
M30
